<svg xmlns="http://www.w3.org/2000/svg" viewBox="0 0 380 380" width="380" height="380">
  <g transform="translate(0,380) scale(0.1,-0.1)" fill="black" stroke="none">
    <path d="M719 2936 c-120 -34 -221 -121 -251 -217 -15 -48 -18 -97 -18 -337 0
-344 2 -339 -117 -357 -138 -21 -150 -212 -15 -241 138 -30 132 -14 131 -360
0 -261 2 -285 21 -336 51 -136 183 -228 328 -228 51 0 58 3 94 40 79 84 33
178 -105 209 -85 19 -81 4 -87 345 l-5 301 -34 73 -34 72 27 53 c37 73 48 184
45 457 -2 161 1 231 9 247 12 21 65 43 107 43 33 0 81 35 98 73 21 44 21 52
-2 103 -31 67 -93 87 -192 60z M2940 2937 c-126 -44 -96 -211 42 -238 109 -22
102 -1 108 -356 l5 -309 33 -65 c38 -78 37 -74 13 -108 -47 -65 -55 -128 -55
-427 -1 -317 2 -306 -79 -324 -113 -26 -147 -57 -147 -136 0 -200 367 -118
455 102 17 44 20 83 25 354 3 168 9 310 13 317 4 7 35 17 68 24 188 37 201
210 19 255 -101 25 -94 1 -101 352 -6 334 -6 335 -69 427 -66 96 -238 165
-330 132z M2465 2600 c-182 -54 -197 -65 -465 -334 -124 -124 -232 -226 -242
-226 -9 0 -39 31 -67 70 -169 232 -360 326 -539 265 -233 -78 -313 -405 -154
-629 44 -63 62 -68 240 -64 185 4 188 0 74 -96 -120 -101 -127 -113 -127 -221
0 -109 33 -183 121 -276 145 -151 333 -156 500 -11 94 81 132 274 99 496 -8
55 -15 100 -15 102 0 1 141 4 313 6 277 5 321 7 389 26 116 31 256 99 308 149
76 73 79 73 -427 73 -406 0 -433 1 -433 18 0 9 134 151 301 317 314 314 330
332 308 346 -23 14 -120 9 -184 -11z m-1140 -469 c47 -21 175 -155 175 -182 0
-18 -10 -19 -155 -19 -178 0 -175 -2 -175 97 0 107 60 148 155 104z m339 -642
c20 -197 -22 -285 -128 -265 -51 10 -108 86 -94 125 8 24 182 201 198 201 14
0 18 -12 24 -61z"/>
  </g>
</svg>
